%TF.GenerationSoftware,KiCad,Pcbnew,10.0.3*%
%TF.CreationDate,2026-08-07T21:43:23-05:00*%
%TF.ProjectId,runtime,72756e74-696d-4652-9e6b-696361645f70,rev?*%
%TF.SameCoordinates,Original*%
%TF.FileFunction,Legend,Top*%
%TF.FilePolarity,Positive*%
%FSLAX46Y46*%
G04 Gerber Fmt 4.6, Leading zero omitted, Abs format (unit mm)*
G04 Created by KiCad (PCBNEW 10.0.3) date 2026-08-07 21:43:23*
%MOMM*%
%LPD*%
G01*
G04 APERTURE LIST*
%ADD10C,0.100000*%
%ADD11C,0.250000*%
%ADD12C,0.150000*%
%ADD13C,0.120000*%
G04 APERTURE END LIST*
D10*
X155000000Y-136500000D02*
G75*
G02*
X152000000Y-139500000I-3000000J0D01*
G01*
X152000000Y-49000000D02*
G75*
G02*
X155000000Y-52000000I0J-3000000D01*
G01*
X133000000Y-139500000D02*
G75*
G02*
X130000000Y-136500000I0J3000000D01*
G01*
X130000000Y-52000000D02*
G75*
G02*
X133000000Y-49000000I3000000J0D01*
G01*
X155000000Y-52000000D02*
X155000000Y-136500000D01*
X152000000Y-139500000D02*
X133000000Y-139500000D01*
X133000000Y-49000000D02*
X152000000Y-49000000D01*
X130000000Y-136500000D02*
X130000000Y-52000000D01*
D11*
X135864619Y-75597431D02*
X134864619Y-75597431D01*
X135340809Y-75597431D02*
X135340809Y-75026003D01*
X135864619Y-75026003D02*
X134864619Y-75026003D01*
X135817000Y-74168860D02*
X135864619Y-74264098D01*
X135864619Y-74264098D02*
X135864619Y-74454574D01*
X135864619Y-74454574D02*
X135817000Y-74549812D01*
X135817000Y-74549812D02*
X135721761Y-74597431D01*
X135721761Y-74597431D02*
X135340809Y-74597431D01*
X135340809Y-74597431D02*
X135245571Y-74549812D01*
X135245571Y-74549812D02*
X135197952Y-74454574D01*
X135197952Y-74454574D02*
X135197952Y-74264098D01*
X135197952Y-74264098D02*
X135245571Y-74168860D01*
X135245571Y-74168860D02*
X135340809Y-74121241D01*
X135340809Y-74121241D02*
X135436047Y-74121241D01*
X135436047Y-74121241D02*
X135531285Y-74597431D01*
X135864619Y-73549812D02*
X135817000Y-73645050D01*
X135817000Y-73645050D02*
X135721761Y-73692669D01*
X135721761Y-73692669D02*
X134864619Y-73692669D01*
X135197952Y-73168859D02*
X136197952Y-73168859D01*
X135245571Y-73168859D02*
X135197952Y-73073621D01*
X135197952Y-73073621D02*
X135197952Y-72883145D01*
X135197952Y-72883145D02*
X135245571Y-72787907D01*
X135245571Y-72787907D02*
X135293190Y-72740288D01*
X135293190Y-72740288D02*
X135388428Y-72692669D01*
X135388428Y-72692669D02*
X135674142Y-72692669D01*
X135674142Y-72692669D02*
X135769380Y-72740288D01*
X135769380Y-72740288D02*
X135817000Y-72787907D01*
X135817000Y-72787907D02*
X135864619Y-72883145D01*
X135864619Y-72883145D02*
X135864619Y-73073621D01*
X135864619Y-73073621D02*
X135817000Y-73168859D01*
X135197952Y-71597430D02*
X135864619Y-71359335D01*
X135197952Y-71121240D02*
X135864619Y-71359335D01*
X135864619Y-71359335D02*
X136102714Y-71454573D01*
X136102714Y-71454573D02*
X136150333Y-71502192D01*
X136150333Y-71502192D02*
X136197952Y-71597430D01*
X135864619Y-70597430D02*
X135817000Y-70692668D01*
X135817000Y-70692668D02*
X135769380Y-70740287D01*
X135769380Y-70740287D02*
X135674142Y-70787906D01*
X135674142Y-70787906D02*
X135388428Y-70787906D01*
X135388428Y-70787906D02*
X135293190Y-70740287D01*
X135293190Y-70740287D02*
X135245571Y-70692668D01*
X135245571Y-70692668D02*
X135197952Y-70597430D01*
X135197952Y-70597430D02*
X135197952Y-70454573D01*
X135197952Y-70454573D02*
X135245571Y-70359335D01*
X135245571Y-70359335D02*
X135293190Y-70311716D01*
X135293190Y-70311716D02*
X135388428Y-70264097D01*
X135388428Y-70264097D02*
X135674142Y-70264097D01*
X135674142Y-70264097D02*
X135769380Y-70311716D01*
X135769380Y-70311716D02*
X135817000Y-70359335D01*
X135817000Y-70359335D02*
X135864619Y-70454573D01*
X135864619Y-70454573D02*
X135864619Y-70597430D01*
X135197952Y-69406954D02*
X135864619Y-69406954D01*
X135197952Y-69835525D02*
X135721761Y-69835525D01*
X135721761Y-69835525D02*
X135817000Y-69787906D01*
X135817000Y-69787906D02*
X135864619Y-69692668D01*
X135864619Y-69692668D02*
X135864619Y-69549811D01*
X135864619Y-69549811D02*
X135817000Y-69454573D01*
X135817000Y-69454573D02*
X135769380Y-69406954D01*
X135864619Y-68930763D02*
X135197952Y-68930763D01*
X135388428Y-68930763D02*
X135293190Y-68883144D01*
X135293190Y-68883144D02*
X135245571Y-68835525D01*
X135245571Y-68835525D02*
X135197952Y-68740287D01*
X135197952Y-68740287D02*
X135197952Y-68645049D01*
X135817000Y-67121239D02*
X135864619Y-67216477D01*
X135864619Y-67216477D02*
X135864619Y-67406953D01*
X135864619Y-67406953D02*
X135817000Y-67502191D01*
X135817000Y-67502191D02*
X135769380Y-67549810D01*
X135769380Y-67549810D02*
X135674142Y-67597429D01*
X135674142Y-67597429D02*
X135388428Y-67597429D01*
X135388428Y-67597429D02*
X135293190Y-67549810D01*
X135293190Y-67549810D02*
X135245571Y-67502191D01*
X135245571Y-67502191D02*
X135197952Y-67406953D01*
X135197952Y-67406953D02*
X135197952Y-67216477D01*
X135197952Y-67216477D02*
X135245571Y-67121239D01*
X135197952Y-66264096D02*
X135864619Y-66264096D01*
X135197952Y-66692667D02*
X135721761Y-66692667D01*
X135721761Y-66692667D02*
X135817000Y-66645048D01*
X135817000Y-66645048D02*
X135864619Y-66549810D01*
X135864619Y-66549810D02*
X135864619Y-66406953D01*
X135864619Y-66406953D02*
X135817000Y-66311715D01*
X135817000Y-66311715D02*
X135769380Y-66264096D01*
X135817000Y-65835524D02*
X135864619Y-65740286D01*
X135864619Y-65740286D02*
X135864619Y-65549810D01*
X135864619Y-65549810D02*
X135817000Y-65454572D01*
X135817000Y-65454572D02*
X135721761Y-65406953D01*
X135721761Y-65406953D02*
X135674142Y-65406953D01*
X135674142Y-65406953D02*
X135578904Y-65454572D01*
X135578904Y-65454572D02*
X135531285Y-65549810D01*
X135531285Y-65549810D02*
X135531285Y-65692667D01*
X135531285Y-65692667D02*
X135483666Y-65787905D01*
X135483666Y-65787905D02*
X135388428Y-65835524D01*
X135388428Y-65835524D02*
X135340809Y-65835524D01*
X135340809Y-65835524D02*
X135245571Y-65787905D01*
X135245571Y-65787905D02*
X135197952Y-65692667D01*
X135197952Y-65692667D02*
X135197952Y-65549810D01*
X135197952Y-65549810D02*
X135245571Y-65454572D01*
X135197952Y-65121238D02*
X135197952Y-64740286D01*
X134864619Y-64978381D02*
X135721761Y-64978381D01*
X135721761Y-64978381D02*
X135817000Y-64930762D01*
X135817000Y-64930762D02*
X135864619Y-64835524D01*
X135864619Y-64835524D02*
X135864619Y-64740286D01*
X135864619Y-64264095D02*
X135817000Y-64359333D01*
X135817000Y-64359333D02*
X135769380Y-64406952D01*
X135769380Y-64406952D02*
X135674142Y-64454571D01*
X135674142Y-64454571D02*
X135388428Y-64454571D01*
X135388428Y-64454571D02*
X135293190Y-64406952D01*
X135293190Y-64406952D02*
X135245571Y-64359333D01*
X135245571Y-64359333D02*
X135197952Y-64264095D01*
X135197952Y-64264095D02*
X135197952Y-64121238D01*
X135197952Y-64121238D02*
X135245571Y-64026000D01*
X135245571Y-64026000D02*
X135293190Y-63978381D01*
X135293190Y-63978381D02*
X135388428Y-63930762D01*
X135388428Y-63930762D02*
X135674142Y-63930762D01*
X135674142Y-63930762D02*
X135769380Y-63978381D01*
X135769380Y-63978381D02*
X135817000Y-64026000D01*
X135817000Y-64026000D02*
X135864619Y-64121238D01*
X135864619Y-64121238D02*
X135864619Y-64264095D01*
X135864619Y-63073619D02*
X134864619Y-63073619D01*
X135817000Y-63073619D02*
X135864619Y-63168857D01*
X135864619Y-63168857D02*
X135864619Y-63359333D01*
X135864619Y-63359333D02*
X135817000Y-63454571D01*
X135817000Y-63454571D02*
X135769380Y-63502190D01*
X135769380Y-63502190D02*
X135674142Y-63549809D01*
X135674142Y-63549809D02*
X135388428Y-63549809D01*
X135388428Y-63549809D02*
X135293190Y-63502190D01*
X135293190Y-63502190D02*
X135245571Y-63454571D01*
X135245571Y-63454571D02*
X135197952Y-63359333D01*
X135197952Y-63359333D02*
X135197952Y-63168857D01*
X135197952Y-63168857D02*
X135245571Y-63073619D01*
X135864619Y-62597428D02*
X135197952Y-62597428D01*
X134864619Y-62597428D02*
X134912238Y-62645047D01*
X134912238Y-62645047D02*
X134959857Y-62597428D01*
X134959857Y-62597428D02*
X134912238Y-62549809D01*
X134912238Y-62549809D02*
X134864619Y-62597428D01*
X134864619Y-62597428D02*
X134959857Y-62597428D01*
X135864619Y-61692667D02*
X135340809Y-61692667D01*
X135340809Y-61692667D02*
X135245571Y-61740286D01*
X135245571Y-61740286D02*
X135197952Y-61835524D01*
X135197952Y-61835524D02*
X135197952Y-62026000D01*
X135197952Y-62026000D02*
X135245571Y-62121238D01*
X135817000Y-61692667D02*
X135864619Y-61787905D01*
X135864619Y-61787905D02*
X135864619Y-62026000D01*
X135864619Y-62026000D02*
X135817000Y-62121238D01*
X135817000Y-62121238D02*
X135721761Y-62168857D01*
X135721761Y-62168857D02*
X135626523Y-62168857D01*
X135626523Y-62168857D02*
X135531285Y-62121238D01*
X135531285Y-62121238D02*
X135483666Y-62026000D01*
X135483666Y-62026000D02*
X135483666Y-61787905D01*
X135483666Y-61787905D02*
X135436047Y-61692667D01*
X135197952Y-61216476D02*
X135864619Y-61216476D01*
X135293190Y-61216476D02*
X135245571Y-61168857D01*
X135245571Y-61168857D02*
X135197952Y-61073619D01*
X135197952Y-61073619D02*
X135197952Y-60930762D01*
X135197952Y-60930762D02*
X135245571Y-60835524D01*
X135245571Y-60835524D02*
X135340809Y-60787905D01*
X135340809Y-60787905D02*
X135864619Y-60787905D01*
D12*
X133604819Y-53333333D02*
X134319104Y-53333333D01*
X134319104Y-53333333D02*
X134461961Y-53380952D01*
X134461961Y-53380952D02*
X134557200Y-53476190D01*
X134557200Y-53476190D02*
X134604819Y-53619047D01*
X134604819Y-53619047D02*
X134604819Y-53714285D01*
X133938152Y-52428571D02*
X134604819Y-52428571D01*
X133557200Y-52666666D02*
X134271485Y-52904761D01*
X134271485Y-52904761D02*
X134271485Y-52285714D01*
X141586667Y-88578200D02*
X141729524Y-88625819D01*
X141729524Y-88625819D02*
X141967619Y-88625819D01*
X141967619Y-88625819D02*
X142062857Y-88578200D01*
X142062857Y-88578200D02*
X142110476Y-88530580D01*
X142110476Y-88530580D02*
X142158095Y-88435342D01*
X142158095Y-88435342D02*
X142158095Y-88340104D01*
X142158095Y-88340104D02*
X142110476Y-88244866D01*
X142110476Y-88244866D02*
X142062857Y-88197247D01*
X142062857Y-88197247D02*
X141967619Y-88149628D01*
X141967619Y-88149628D02*
X141777143Y-88102009D01*
X141777143Y-88102009D02*
X141681905Y-88054390D01*
X141681905Y-88054390D02*
X141634286Y-88006771D01*
X141634286Y-88006771D02*
X141586667Y-87911533D01*
X141586667Y-87911533D02*
X141586667Y-87816295D01*
X141586667Y-87816295D02*
X141634286Y-87721057D01*
X141634286Y-87721057D02*
X141681905Y-87673438D01*
X141681905Y-87673438D02*
X141777143Y-87625819D01*
X141777143Y-87625819D02*
X142015238Y-87625819D01*
X142015238Y-87625819D02*
X142158095Y-87673438D01*
X142491429Y-87625819D02*
X142729524Y-88625819D01*
X142729524Y-88625819D02*
X142920000Y-87911533D01*
X142920000Y-87911533D02*
X143110476Y-88625819D01*
X143110476Y-88625819D02*
X143348572Y-87625819D01*
X144253333Y-88625819D02*
X143681905Y-88625819D01*
X143967619Y-88625819D02*
X143967619Y-87625819D01*
X143967619Y-87625819D02*
X143872381Y-87768676D01*
X143872381Y-87768676D02*
X143777143Y-87863914D01*
X143777143Y-87863914D02*
X143681905Y-87911533D01*
X150166666Y-136304819D02*
X150166666Y-137019104D01*
X150166666Y-137019104D02*
X150119047Y-137161961D01*
X150119047Y-137161961D02*
X150023809Y-137257200D01*
X150023809Y-137257200D02*
X149880952Y-137304819D01*
X149880952Y-137304819D02*
X149785714Y-137304819D01*
X151166666Y-137304819D02*
X150595238Y-137304819D01*
X150880952Y-137304819D02*
X150880952Y-136304819D01*
X150880952Y-136304819D02*
X150785714Y-136447676D01*
X150785714Y-136447676D02*
X150690476Y-136542914D01*
X150690476Y-136542914D02*
X150595238Y-136590533D01*
X147224819Y-71333333D02*
X147939104Y-71333333D01*
X147939104Y-71333333D02*
X148081961Y-71380952D01*
X148081961Y-71380952D02*
X148177200Y-71476190D01*
X148177200Y-71476190D02*
X148224819Y-71619047D01*
X148224819Y-71619047D02*
X148224819Y-71714285D01*
X147224819Y-70952380D02*
X147224819Y-70333333D01*
X147224819Y-70333333D02*
X147605771Y-70666666D01*
X147605771Y-70666666D02*
X147605771Y-70523809D01*
X147605771Y-70523809D02*
X147653390Y-70428571D01*
X147653390Y-70428571D02*
X147701009Y-70380952D01*
X147701009Y-70380952D02*
X147796247Y-70333333D01*
X147796247Y-70333333D02*
X148034342Y-70333333D01*
X148034342Y-70333333D02*
X148129580Y-70380952D01*
X148129580Y-70380952D02*
X148177200Y-70428571D01*
X148177200Y-70428571D02*
X148224819Y-70523809D01*
X148224819Y-70523809D02*
X148224819Y-70809523D01*
X148224819Y-70809523D02*
X148177200Y-70904761D01*
X148177200Y-70904761D02*
X148129580Y-70952380D01*
X134926666Y-136304819D02*
X134926666Y-137019104D01*
X134926666Y-137019104D02*
X134879047Y-137161961D01*
X134879047Y-137161961D02*
X134783809Y-137257200D01*
X134783809Y-137257200D02*
X134640952Y-137304819D01*
X134640952Y-137304819D02*
X134545714Y-137304819D01*
X135355238Y-136400057D02*
X135402857Y-136352438D01*
X135402857Y-136352438D02*
X135498095Y-136304819D01*
X135498095Y-136304819D02*
X135736190Y-136304819D01*
X135736190Y-136304819D02*
X135831428Y-136352438D01*
X135831428Y-136352438D02*
X135879047Y-136400057D01*
X135879047Y-136400057D02*
X135926666Y-136495295D01*
X135926666Y-136495295D02*
X135926666Y-136590533D01*
X135926666Y-136590533D02*
X135879047Y-136733390D01*
X135879047Y-136733390D02*
X135307619Y-137304819D01*
X135307619Y-137304819D02*
X135926666Y-137304819D01*
%TO.C,J4*%
D13*
X135590000Y-51670000D02*
X136920000Y-51670000D01*
X135590000Y-53000000D02*
X135590000Y-51670000D01*
X138190000Y-51670000D02*
X148410000Y-51670000D01*
X138190000Y-54330000D02*
X138190000Y-51670000D01*
X138190000Y-54330000D02*
X148410000Y-54330000D01*
X148410000Y-54330000D02*
X148410000Y-51670000D01*
%TO.C,SW1*%
X135935000Y-89060000D02*
X149905000Y-89060000D01*
X135935000Y-103030000D02*
X135935000Y-89060000D01*
X149905000Y-89060000D02*
X149905000Y-103030000D01*
X149905000Y-103030000D02*
X135935000Y-103030000D01*
%TO.C,J1*%
X149170000Y-132810000D02*
X149170000Y-117510000D01*
X149170000Y-135410000D02*
X149170000Y-134080000D01*
X150500000Y-135410000D02*
X149170000Y-135410000D01*
X151830000Y-117510000D02*
X149170000Y-117510000D01*
X151830000Y-132810000D02*
X149170000Y-132810000D01*
X151830000Y-132810000D02*
X151830000Y-117510000D01*
%TO.C,J3*%
X138590000Y-69670000D02*
X138590000Y-72330000D01*
X143730000Y-69670000D02*
X138590000Y-69670000D01*
X143730000Y-69670000D02*
X143730000Y-72330000D01*
X143730000Y-72330000D02*
X138590000Y-72330000D01*
X146330000Y-71000000D02*
X146330000Y-72330000D01*
X146330000Y-72330000D02*
X145000000Y-72330000D01*
%TO.C,J2*%
X133930000Y-132810000D02*
X133930000Y-117510000D01*
X133930000Y-135410000D02*
X133930000Y-134080000D01*
X135260000Y-135410000D02*
X133930000Y-135410000D01*
X136590000Y-117510000D02*
X133930000Y-117510000D01*
X136590000Y-132810000D02*
X133930000Y-132810000D01*
X136590000Y-132810000D02*
X136590000Y-117510000D01*
%TD*%
M02*
