%TF.GenerationSoftware,KiCad,Pcbnew,10.0.3*%
%TF.CreationDate,2026-08-07T21:43:22-05:00*%
%TF.ProjectId,runtime,72756e74-696d-4652-9e6b-696361645f70,rev?*%
%TF.SameCoordinates,Original*%
%TF.FileFunction,Copper,L2,Bot*%
%TF.FilePolarity,Positive*%
%FSLAX46Y46*%
G04 Gerber Fmt 4.6, Leading zero omitted, Abs format (unit mm)*
G04 Created by KiCad (PCBNEW 10.0.3) date 2026-08-07 21:43:22*
%MOMM*%
%LPD*%
G01*
G04 APERTURE LIST*
%TA.AperFunction,ComponentPad*%
%ADD10R,1.700000X1.700000*%
%TD*%
%TA.AperFunction,ComponentPad*%
%ADD11C,1.700000*%
%TD*%
%TA.AperFunction,ComponentPad*%
%ADD12C,2.200000*%
%TD*%
%TA.AperFunction,Conductor*%
%ADD13C,0.200000*%
%TD*%
G04 APERTURE END LIST*
D10*
%TO.P,J4,1,Pin_1_1*%
%TO.N,Net-(J1-Pin_1)*%
X136920000Y-53000000D03*
D11*
%TO.P,J4,2,Pin_2_2*%
%TO.N,GND*%
X139460000Y-53000000D03*
%TO.P,J4,3,Pin_3_3*%
%TO.N,Net-(J1-Pin_4)*%
X142000000Y-53000000D03*
%TO.P,J4,4,Pin_4_4*%
%TO.N,Net-(J1-Pin_6)*%
X144540000Y-53000000D03*
%TO.P,J4,5,Pin_5_5*%
%TO.N,Net-(J2-Pin_1)*%
X147080000Y-53000000D03*
%TD*%
D12*
%TO.P,SW1,1,1_1*%
%TO.N,Net-(J2-Pin_3)*%
X145460000Y-90965000D03*
%TO.P,SW1,2,2_2*%
%TO.N,GND*%
X139110000Y-93505000D03*
%TD*%
D10*
%TO.P,J1,1,Pin_1_1*%
%TO.N,Net-(J1-Pin_1)*%
X150500000Y-134080000D03*
D11*
%TO.P,J1,2,Pin_2_2*%
%TO.N,GND*%
X150500000Y-131540000D03*
%TO.P,J1,3,Pin_3_3*%
%TO.N,Net-(J1-Pin_3)*%
X150500000Y-129000000D03*
%TO.P,J1,4,Pin_4_4*%
%TO.N,Net-(J1-Pin_4)*%
X150500000Y-126460000D03*
%TO.P,J1,5,Pin_5_5*%
%TO.N,unconnected-(J1-Pin_5-Pad5)*%
X150500000Y-123920000D03*
%TO.P,J1,6,Pin_6_6*%
%TO.N,Net-(J1-Pin_6)*%
X150500000Y-121380000D03*
%TO.P,J1,7,Pin_7_7*%
%TO.N,unconnected-(J1-Pin_7-Pad7)*%
X150500000Y-118840000D03*
%TD*%
D10*
%TO.P,J3,1,Pin_1_1*%
%TO.N,Net-(J1-Pin_3)*%
X145000000Y-71000000D03*
D11*
%TO.P,J3,2,Pin_2_2*%
%TO.N,GND*%
X142460000Y-71000000D03*
%TO.P,J3,3,Pin_3_3*%
%TO.N,Net-(J2-Pin_2)*%
X139920000Y-71000000D03*
%TD*%
D10*
%TO.P,J2,1,Pin_1_1*%
%TO.N,Net-(J2-Pin_1)*%
X135260000Y-134080000D03*
D11*
%TO.P,J2,2,Pin_2_2*%
%TO.N,Net-(J2-Pin_2)*%
X135260000Y-131540000D03*
%TO.P,J2,3,Pin_3_3*%
%TO.N,Net-(J2-Pin_3)*%
X135260000Y-129000000D03*
%TO.P,J2,4,Pin_4_4*%
%TO.N,unconnected-(J2-Pin_4-Pad4)*%
X135260000Y-126460000D03*
%TO.P,J2,5,Pin_5_5*%
%TO.N,unconnected-(J2-Pin_5-Pad5)*%
X135260000Y-123920000D03*
%TO.P,J2,6,Pin_6_6*%
%TO.N,unconnected-(J2-Pin_6-Pad6)*%
X135260000Y-121380000D03*
%TO.P,J2,7,Pin_7_7*%
%TO.N,unconnected-(J2-Pin_7-Pad7)*%
X135260000Y-118840000D03*
%TD*%
%TO.N,Net-(J2-Pin_2)*%
D13*
X136410000Y-130390000D02*
X135260000Y-131540000D01*
X146150000Y-69850000D02*
X146150000Y-72150000D01*
X141070000Y-69850000D02*
X146150000Y-69850000D01*
X146150000Y-72150000D02*
X136410000Y-81890000D01*
X139920000Y-71000000D02*
X141070000Y-69850000D01*
X136410000Y-81890000D02*
X136410000Y-130390000D01*
%TO.N,Net-(J1-Pin_4)*%
X143150000Y-51850000D02*
X142000000Y-53000000D01*
X150500000Y-126460000D02*
X152050000Y-124910000D01*
X147556346Y-51850000D02*
X143150000Y-51850000D01*
X152050000Y-56343654D02*
X147556346Y-51850000D01*
X152050000Y-124910000D02*
X152050000Y-56343654D01*
%TO.N,Net-(J1-Pin_6)*%
X144540000Y-97748402D02*
X144540000Y-115420000D01*
X146860000Y-55320000D02*
X146860000Y-95428402D01*
X144540000Y-115420000D02*
X150500000Y-121380000D01*
X144540000Y-53000000D02*
X146860000Y-55320000D01*
X146860000Y-95428402D02*
X144540000Y-97748402D01*
%TO.N,Net-(J1-Pin_3)*%
X145000000Y-71000000D02*
X134110000Y-81890000D01*
X144270000Y-135230000D02*
X150500000Y-129000000D01*
X134110000Y-135230000D02*
X144270000Y-135230000D01*
X134110000Y-81890000D02*
X134110000Y-135230000D01*
%TO.N,Net-(J2-Pin_1)*%
X146810000Y-122530000D02*
X135260000Y-134080000D01*
X151650000Y-121856346D02*
X150976346Y-122530000D01*
X147080000Y-53000000D02*
X151650000Y-57570000D01*
X151650000Y-57570000D02*
X151650000Y-121856346D01*
X150976346Y-122530000D02*
X146810000Y-122530000D01*
%TD*%
M02*
